PathFileType	4	(X/Y/Z)	C:\Users\Basilio\Documents\Thesis Gigler\squatting_fais\c3dfiles\039\SLS_pre_front1\markers_experimental.trc
DataRate	CameraRate	NumFrames	NumMarkers	Units	OrigDataRate	OrigDataStartFrame	OrigNumFrames
200.000000	200.000000	4	63	mm	200.000000	0	1405
Frame#	Time	FHD			RBHD			C7			T10			LSHO			LUUPA			LMUPA			LDUPA			LLEP			LMEP			LRAD			LUL			LRFIN			RSHO			RUPA1			RMUPA			RDUPA			RLEP			RMEP			RRAD			RUL			RUFIN			LASI			RASI			USACR			LSACR			RSACR			LTHI1			LTHI2			LTHI3			LTHI4			LLFC			LMFC			LTIB1			LTIB2			LTIB3			LTIB4			LLMAL			LMMAL			LHEE			LMT1			LMT2			LMT5			RTHI			RTHI2			RTHI3			RTHI4			RLFC			RMFC			RTIB1			RTIB2			RTIB3			RTIB4			RLMAL			RMMAL			RHEE			RMT1			RMT2			RMT5			LBHD			CLAV			*61			*62			
		X1	Y1	Z1	X2	Y2	Z2	X3	Y3	Z3	X4	Y4	Z4	X5	Y5	Z5	X6	Y6	Z6	X7	Y7	Z7	X8	Y8	Z8	X9	Y9	Z9	X10	Y10	Z10	X11	Y11	Z11	X12	Y12	Z12	X13	Y13	Z13	X14	Y14	Z14	X15	Y15	Z15	X16	Y16	Z16	X17	Y17	Z17	X18	Y18	Z18	X19	Y19	Z19	X20	Y20	Z20	X21	Y21	Z21	X22	Y22	Z22	X23	Y23	Z23	X24	Y24	Z24	X25	Y25	Z25	X26	Y26	Z26	X27	Y27	Z27	X28	Y28	Z28	X29	Y29	Z29	X30	Y30	Z30	X31	Y31	Z31	X32	Y32	Z32	X33	Y33	Z33	X34	Y34	Z34	X35	Y35	Z35	X36	Y36	Z36	X37	Y37	Z37	X38	Y38	Z38	X39	Y39	Z39	X40	Y40	Z40	X41	Y41	Z41	X42	Y42	Z42	X43	Y43	Z43	X44	Y44	Z44	X45	Y45	Z45	X46	Y46	Z46	X47	Y47	Z47	X48	Y48	Z48	X49	Y49	Z49	X50	Y50	Z50	X51	Y51	Z51	X52	Y52	Z52	X53	Y53	Z53	X54	Y54	Z54	X55	Y55	Z55	X56	Y56	Z56	X57	Y57	Z57	X58	Y58	Z58	X59	Y59	Z59	X60	Y60	Z60	X61	Y61	Z61	X62	Y62	Z62	X63	Y63	Z63	

1	0	-308.9414062500001	1762.541015625	-623.2152099609376	-439.4050598144532	1737.299438476563	-604.3955688476564	-504.8859252929689	1567.29541015625	-686.7686767578126	-522.7454223632814	1258.144409179688	-716.0124511718751	-430.7144165039064	1583.446044921875	-849.207214355469	-268.0399475097657	1555.91748046875	-964.903259277344	-244.711654663086	1587.381103515625	-933.3711547851565	-199.1655731201172	1568.258056640625	-967.4283447265627	-132.9386444091797	1578.93505859375	-964.8437500000002	-124.0351943969727	1505.896118164063	-936.3994750976565	148.0885772705078	1614.482055664063	-888.7170410156252	144.7571105957032	1625.673583984375	-964.0958251953127	227.1314544677735	1649.765258789063	-882.977966308594	-391.0170898437501	1573.087768554688	-535.3986206054689	-222.9863281250001	1516.590942382813	-442.0816650390626	-198.6461944580079	1551.588134765625	-469.6206665039064	-154.63037109375	1516.35693359375	-446.330780029297	-93.02881622314455	1532.125854492188	-458.7496032714845	-86.54747009277345	1465.046142578125	-497.5828247070314	191.0988311767578	1585.697143554688	-544.5084228515626	191.7412719726563	1576.921630859375	-467.9077453613282	279.5652465820313	1617.95654296875	-535.0549926757814	-353.7279663085938	1108.721923828125	-856.2500000000002	-338.6078186035157	1068.537963867188	-635.8286132812501	-531.3967285156251	1119.231079101563	-730.0584106445314	-533.7361450195314	1091.3154296875	-762.9140625000001	-528.7955322265626	1082.048583984375	-704.1012573242189	-244.4992065429688	898.4253540039065	-947.2602539062502	-164.9848937988282	870.6824340820315	-939.133728027344	-137.2139282226563	903.996765136719	-919.4148559570315	-145.9159393310547	811.9008789062502	-935.9758300781252	-56.51264953613283	729.3355102539064	-935.9610595703127	-28.30630683898926	711.4865112304689	-821.573425292969	86.03340148925783	655.7153320312501	-912.1301269531252	68.40356445312501	588.7148437500001	-965.184265136719	102.1237945556641	609.4158325195314	-943.7221679687502	153.4163513183594	546.0909423828126	-910.4991455078127	227.3937988281251	388.3276977539064	-961.4101562500002	233.7609405517579	387.067352294922	-874.2462158203127	205.2813873291016	300.0227966308594	-934.1814575195315	389.9247131347657	436.5393676757814	-879.7983398437502	387.9212341308595	439.8108215332032	-922.440612792969	372.2426147460938	400.9715270996095	-980.2984619140627	-324.7908325195313	790.7124633789065	-593.1389770507814	-272.9511413574219	748.5460815429689	-593.7352905273439	-242.5752563476563	760.0659179687501	-599.0591430664064	-278.2118225097657	664.6282958984376	-611.3070068359376	-283.5115051269532	529.9309692382814	-644.7107543945314	-247.4282989501954	535.6026000976564	-757.1124877929689	-265.5486450195313	322.7582702636719	-688.2341918945314	-359.4013366699219	269.1973876953126	-685.8326416015626	-315.6312255859376	254.0443267822266	-687.3803100585939	-305.2880859375001	209.3306121826172	-727.8054199218751	-385.5255432128907	125.1060485839844	-713.0969848632814	-354.1453247070313	144.680908203125	-796.850280761719	-454.9399719238282	108.5319137573242	-769.233337402344	-232.2953186035157	53.37608718872072	-778.0866699218752	-236.2754058837891	55.63537979125978	-732.2634277343751	-292.5943298339844	40.94486236572266	-680.7933349609376	nan	nan	nan	nan	nan	nan	nan	nan	nan	nan	nan	nan	
2	0.005	-308.7241821289063	1761.869995117188	-623.2369384765626	-439.3186645507814	1736.696655273438	-604.3402709960939	-504.8283996582032	1566.625610351563	-686.7811279296876	-522.8787231445314	1257.554931640625	-715.9248657226564	-431.1861572265626	1582.9208984375	-849.4863281250002	-268.1051025390626	1555.294555664063	-964.8916625976565	-244.8725128173829	1586.659423828125	-933.325134277344	-199.1179962158204	1567.6318359375	-967.4304199218752	-132.9381561279297	1578.130981445313	-964.761413574219	-124.1375579833985	1505.353271484375	-936.3121337890627	148.1293334960938	1613.814697265625	-888.8360595703127	144.8178100585938	1625.082763671875	-964.2271118164065	227.134017944336	1649.127563476563	-883.1176757812502	-390.8935852050782	1572.41259765625	-535.3796997070314	-222.0071563720704	1516.902709960938	-441.6459960937501	-198.7214813232422	1551.293090820313	-469.6868591308595	-154.486068725586	1515.709350585938	-446.4987182617189	-92.99315643310548	1531.465454101563	-458.7942504882814	-86.44795989990236	1464.4169921875	-497.5621948242189	191.2122344970703	1585.116577148438	-544.5726928710939	191.8488159179688	1576.289428710938	-468.1255798339845	279.6065673828126	1617.395751953125	-535.1654052734376	-353.9319152832032	1108.192138671875	-856.207458496094	-338.6906738281251	1068.010864257813	-635.8096923828126	-531.6582641601564	1118.629516601563	-729.8265991210939	-533.9259643554689	1090.586181640625	-762.7133178710939	-528.8340454101564	1081.4111328125	-703.9021606445314	-244.4578857421876	898.1365966796877	-947.117614746094	-164.8607330322266	870.4837036132815	-938.952087402344	-137.1733093261719	903.8689575195315	-919.2139282226565	-145.6788330078125	811.7783813476565	-935.721862792969	-56.16689682006837	729.4323730468751	-935.7286376953127	-27.81027793884278	711.6306762695314	-821.2417602539065	86.57157135009767	655.8297119140626	-911.5158691406252	69.23318481445314	589.2357788085939	-964.9639282226565	102.7190475463867	609.8118286132814	-943.3611450195315	154.3580627441407	547.2788696289064	-910.0626220703127	228.593002319336	389.108856201172	-961.011901855469	234.9359741210938	387.7612915039064	-873.9047851562502	206.4624786376954	300.7285461425782	-933.742858886719	391.401580810547	437.8133239746095	-879.5153808593752	388.8300170898439	440.8933715820314	-922.135681152344	373.4584045410157	402.082244873047	-979.9951171875002	-324.0910034179688	790.2671508789065	-593.1410522460939	-272.1631469726563	748.0693359375001	-593.7800292968751	-241.9853057861329	759.7215576171876	-599.0114746093751	-277.4404907226563	664.3278198242189	-611.1614990234376	-282.6687011718751	529.6372070312501	-644.6151123046876	-246.7002410888672	535.3337402343751	-757.0280151367189	-264.9953613281251	322.4399719238282	-688.3134155273439	-358.9393615722657	269.1463012695313	-685.8615722656251	-315.2391967773438	253.8870086669922	-687.5106811523439	-305.0273132324219	209.0885314941407	-727.8941040039064	-385.4902648925782	125.0767517089844	-713.1419677734376	-354.1313476562501	144.6488494873047	-796.9423828125002	-454.9130249023439	108.510124206543	-769.200622558594	-232.3131103515626	53.37507247924806	-778.1087646484377	-236.2604522705079	55.64595413208009	-732.2700195312501	-292.6034851074219	40.9406852722168	-680.8632812500001	nan	nan	nan	nan	nan	nan	nan	nan	nan	nan	nan	nan	
3	0.01	-308.6375427246094	1761.066772460938	-623.1968383789064	-439.1118774414064	1735.935668945313	-604.4171142578126	-504.7756652832032	1566.014770507813	-686.7839965820314	-523.0226440429689	1256.919311523438	-715.7567749023439	-430.616668701172	1582.169555664063	-849.1245727539065	-268.0825195312501	1554.68017578125	-964.9019775390627	-244.7332000732422	1586.037231445313	-933.3372192382815	-199.0209197998047	1566.950317382813	-967.4131469726565	-132.9490356445313	1577.559204101563	-964.7386474609377	-124.1488952636719	1504.398559570313	-936.2183227539065	148.1514434814453	1613.029541015625	-888.942565917969	144.8083038330078	1624.420654296875	-964.3114013671877	227.2724761962891	1648.426879882813	-883.2348632812502	-390.8619689941407	1571.635375976563	-535.3494873046876	-222.3513336181641	1515.63134765625	-441.6201171875001	-198.1317138671876	1550.6650390625	-469.3685607910157	-154.3209686279297	1515.027587890625	-446.543426513672	-92.83605194091798	1530.74658203125	-458.8226928710939	-86.39340209960939	1463.737670898438	-497.546844482422	191.2462310791016	1584.442260742188	-544.6647949218751	192.2588500976563	1576.097778320313	-467.8223876953126	279.6654052734376	1616.892944335938	-535.2046508789064	-354.1886901855469	1107.64306640625	-856.2194824218752	-338.7592773437501	1067.453247070313	-635.7385864257814	-531.8786621093751	1118.024169921875	-729.6189575195314	-534.1252441406251	1089.92919921875	-762.4957885742189	-528.9682617187501	1080.566040039063	-703.6656494140626	-244.3171386718751	897.755065917969	-946.9719238281252	-164.4869232177735	870.7142333984377	-938.935241699219	-136.0251922607422	903.7088012695315	-919.2002563476565	-145.4481658935547	811.641052246094	-935.4780273437502	-55.66917037963869	729.4934082031251	-935.4429321289065	-27.41160583496094	711.7769165039064	-820.9089355468752	87.1766815185547	656.3025512695314	-911.1739501953127	69.8667678833008	588.6951293945314	-964.565368652344	103.3634948730469	610.3049926757814	-943.0878906250002	155.1715240478516	547.9927978515626	-909.7802734375002	229.9417266845704	389.9214782714845	-960.644470214844	236.2857971191407	388.7100524902345	-873.4141235351565	208.2125854492188	301.5119628906251	-933.4173583984377	392.3624572753907	439.0033569335939	-879.2182617187502	390.197235107422	442.1200561523439	-921.778991699219	374.7209472656251	403.0908508300782	-979.6156005859377	-323.4766540527344	789.7113037109377	-592.9607543945314	-270.9400024414063	748.1034545898439	-593.6704101562501	-241.5166473388672	759.4053344726564	-599.0913696289064	-276.8200683593751	664.0815429687501	-611.1704101562501	-281.3237609863282	529.2039794921876	-644.2429809570314	-246.1321258544922	535.0914916992189	-757.0387573242189	-264.3913879394532	322.0944213867188	-688.4557495117189	-358.4765319824219	269.0461730957032	-685.9063720703126	-314.9165649414063	253.710189819336	-687.6098632812501	-304.7987976074219	208.9115142822266	-727.9916381835939	-385.4189758300782	125.0597000122071	-713.1356811523439	-354.2005920410157	144.6199188232422	-797.0037231445315	-454.9292297363282	108.517807006836	-769.1809082031252	-232.2999725341797	53.38516998291017	-778.1291503906252	-236.2525329589844	55.65935134887697	-732.2853393554689	-292.6145629882813	41.00544357299805	-680.9058837890626	nan	nan	nan	nan	nan	nan	nan	nan	nan	nan	nan	nan	
4	0.015	-308.6247863769532	1760.410522460938	-623.0557861328126	-438.9523010253907	1735.15869140625	-604.3827514648439	-504.6648559570314	1565.398681640625	-686.7370605468751	-523.1529541015626	1256.235229492188	-715.5782470703126	-430.5840148925782	1581.546630859375	-849.1311645507815	-268.0593261718751	1554.017822265625	-964.8774414062502	-244.6549377441407	1585.4169921875	-933.286560058594	-199.1148681640626	1566.266235351563	-967.3905029296877	-132.9580230712891	1576.972778320313	-964.8337402343752	-124.0223236083985	1503.775268554688	-936.3677368164065	148.1938934326172	1612.363403320313	-889.0531005859377	144.7969207763672	1623.718017578125	-964.4425048828127	227.3510131835938	1647.731811523438	-883.3787841796877	-390.7748413085939	1570.951171875	-535.3353881835939	-222.6875152587891	1514.50634765625	-442.0714721679689	-198.4029235839844	1549.601440429688	-469.6410522460939	-154.2973022460938	1514.433837890625	-446.4647521972657	-92.70409393310548	1530.159301757813	-458.8998107910157	-86.25706481933595	1463.072631835938	-497.624237060547	192.6204071044922	1583.805053710938	-544.7616577148439	192.2872772216797	1575.379150390625	-467.8544921875001	279.7773132324219	1616.23583984375	-535.3540649414064	-354.4737854003907	1107.033569335938	-856.1834716796877	-338.9029846191407	1066.82861328125	-635.5276489257814	-531.9633789062501	1117.179077148438	-729.3698120117189	-534.2688598632814	1089.172119140625	-762.2393798828126	-529.0909423828126	1079.893676757813	-703.4241943359376	-244.2728576660157	897.4190063476565	-946.8081665039065	-164.3158721923828	870.527526855469	-938.7465820312502	-136.0124816894532	903.5911865234377	-918.9698486328127	-145.2316589355469	811.5076293945315	-935.2703247070315	-55.27039337158205	729.5584106445314	-935.1517333984377	-26.97378540039063	711.9445800781251	-820.643005371094	87.85444641113283	656.7603759765626	-910.891784667969	70.69447326660158	589.0549926757814	-964.2044677734377	104.1072387695313	610.7005615234376	-942.7218017578127	155.9360046386719	548.0080566406251	-909.5835571289065	231.0377197265626	390.6286621093751	-960.2686157226565	237.5293884277344	389.5008239746095	-872.9746093750002	209.4874267578126	302.1861267089844	-932.8174438476565	393.4147949218751	440.2064819335939	-878.8198852539065	391.3077392578126	443.3226318359376	-921.3630981445315	375.8499755859376	404.2630310058595	-979.2817382812502	-323.1295776367188	789.232604980469	-592.7880859375001	-270.4234313964844	747.7321166992189	-593.5721435546876	-240.7936248779297	759.0358276367189	-599.2441406250001	-275.7837829589844	663.5908813476564	-611.2409057617189	-280.2687072753907	529.1894531250001	-644.3754882812501	-245.3363342285157	535.3642578125001	-756.9313354492189	-263.8223266601563	321.8210449218751	-688.5220336914064	-358.0195312500001	268.9933471679688	-685.8919677734376	-314.5307922363282	253.5726470947266	-687.7017822265626	-304.6036071777344	208.7750854492188	-728.0480346679689	-385.3686523437501	125.0402984619141	-713.1458129882814	-354.1629028320313	144.5926513671875	-797.0740966796877	-454.917205810547	108.5243301391602	-769.231140136719	-232.3646697998047	53.34525680541994	-778.171569824219	-236.249008178711	55.65868759155275	-732.2855224609376	-292.5872497558594	41.01569747924805	-680.9338378906251	nan	nan	nan	nan	nan	nan	nan	nan	nan	nan	nan	nan	
